# AST/ASF file generated using VICON BodyLanguage
# -----------------------------------------------
:version 1.10
:name VICON
:units
  mass 1.0
  length 0.45
  angle deg
:documentation
   .ast/.asf automatically generated from VICON data using
   VICON BodyBuilder and BodyLanguage model FoxedUp or BRILLIANT.MOD
:root
   order TX TY TZ RX RY RZ
   axis XYZ
   position 0 0 0  
   orientation 0 0 0 
:bonedata
  begin
     id 1 
     name lhipjoint
     direction 0.671379 -0.66392 0.329334 
     length 2.38647 
     axis 0 0 0  XYZ
  end
  begin
     id 2 
     name lfemur
     direction 0.34202 -0.939693 0  
     length 6.48179  
     axis 0 0 20  XYZ
    dof rx ry rz
    limits (-160.0 20.0)
           (-70.0 70.0)
           (-60.0 70.0)
  end
  begin
     id 3 
     name ltibia
     direction 0.34202 -0.939693 0   
     length 6.86524   
     axis 0 0 20   XYZ
    dof rx
    limits (-10.0 170.0)
  end
  begin
     id 4 
     name lfoot
     direction 0.204886 -0.562919 0.800715   
     length 1.73031   
     axis -90 7.62852e-016 20   XYZ
    dof rx rz
    limits (-45.0 90.0)
           (-70.0 20.0)
  end
  begin
     id 5 
     name ltoes
     direction 1.53548e-011 -4.21841e-011 1   
     length 0.828161   
     axis -90 7.62852e-016 20   XYZ
    dof rx
    limits (-90.0 20.0)
  end
  begin
     id 6 
     name rhipjoint
     direction -0.662732 -0.670855 0.332775   
     length 2.3618  
     axis 0 0 0  XYZ 
  end
  begin
     id 7 
     name rfemur
     direction -0.34202 -0.939693 0   
     length 6.3025   
     axis 0 0 -20   XYZ
    dof rx ry rz
    limits (-160.0 20.0)
           (-70.0 70.0)
           (-70.0 60.0)
  end
  begin
     id 8 
     name rtibia
     direction -0.34202 -0.939693 0   
     length 6.8732   
     axis 0 0 -20   XYZ
    dof rx
    limits (-10.0 170.0)
 end
 begin
     id 9 
     name rfoot
     direction -0.173856 -0.477665 0.861168   
     length 1.54784  
     axis -90 -7.62852e-016 -20   XYZ
    dof rx rz
    limits (-45.0 90.0)
           (-20.0 70.0)
  end
  begin
     id 10 
     name rtoes
     direction -1.53562e-011 -4.21802e-011 1   
     length 0.759618   
     axis -90 -7.62852e-016 -20   XYZ
    dof rx
    limits (-90.0 20.0)
  end
  begin
     id 11 
     name lowerback
     direction -0.0278357 0.999497 -0.0151789   
     length 1.97203   
     axis 0 0 0   XYZ
    dof rx ry rz
    limits (-20.0 45.0)
           (-30.0 30.0)
           (-30.0 30.0)
  end
  begin
     id 12 
     name upperback
     direction -0.00360622 0.997542 0.0699804   
     length 1.94709   
     axis 0 0 0   XYZ
    dof rx ry rz
    limits (-20.0 45.0)
           (-30.0 30.0)
           (-30.0 30.0)
  end
  begin
     id 13 
     name thorax
     direction 0.00907706 0.997048 0.0762461   
     length 1.95722   
     axis 0 0 0   XYZ
    dof rx ry rz
    limits (-20.0 45.0)
           (-30.0 30.0)
           (-30.0 30.0)
  end
  begin
     id 14 
     name lowerneck
     direction -0.0481835 0.99872 -0.0153927   
     length 1.63078   
     axis 0 0 0   XYZ
    dof rx ry rz
    limits (-20.0 45.0)
           (-30.0 30.0)
           (-30.0 30.0)
  end
  begin
     id 15 
     name upperneck
     direction 0.0859716 0.979226 -0.183644   
     length 1.62591   
     axis 0 0 0   XYZ
    dof rx ry rz
    limits (-20.0 45.0)
           (-30.0 30.0)
           (-30.0 30.0)
  end
  begin
     id 16
     name head
     direction 0.0324821 0.997629 -0.0606773  
     length 1.64811  
     axis 0 0 0   XYZ
    dof rx ry rz
    limits (-20.0 45.0)
           (-30.0 30.0)
           (-30.0 30.0)
  end
  begin
     id 17 
     name lclavicle
     direction 0.939609 0.311019 0.142835  
     length 3.70647  
     axis 0 0 0   XYZ
    dof ry rz
    limits (-20.0 10.0)
           (0.0 20.0)
  end
  begin
     id 18 
     name lhumerus
     direction 1 -4.48963e-011 -1.59838e-027   
     length 4.59207   
     axis 180 -30 -90   XYZ
    dof rx ry rz
    limits (-60.0 90.0)
           (-90.0 90.0)
           (-90.0 90.0)
  end
  begin
     id 19
     name lradius
     direction 1 -4.48957e-011 -1.3483e-026   
     length 2.98109   
     axis 180 -30 -90   XYZ
    dof rx
    limits (-10.0 170.0)
  end
  begin
     id 20
     name lwrist
     direction 1 -4.48954e-011 -3.11579e-026   
     length 1.49055   
     axis 2.00652e-014 90 90   XYZ
    dof ry
    limits (-180.0 0.0)
 end
  begin
     id 21 
     name lhand
     direction 1 -4.4911e-011 -6.23158e-026   
     length 0.480203   
     axis 3.97628e-014 90 90   XYZ
    dof rx rz
    limits (-90.0 90.0)
           (-45.0 45.0)
  end
  begin
     id 22 
     name lfingers
     direction 1 -4.48893e-011 -1.24632e-025   
     length 0.387152   
     axis 7.95256e-014 90 90   XYZ
    dof rx
    limits (0.0 90.0)
  end
  begin
     id 23
     name lthumb
     direction 0.707107 -6.35013e-011 0.707107   
     length 0.555875   
     axis -90 45 2.85299e-015   XYZ
    dof rx rz
    limits (-45.0 45.0)
           (-45.0 45.0)
  end
  begin
     id 24 
     name rclavicle
     direction -0.950396 0.30392 0.0661859   
     length 3.70894  
     axis 0 0 0   XYZ 
    dof ry rz
    limits (-10.0 20.0)
           (-20.0 0.0)
  end
  begin
     id 25 
     name rhumerus
     direction -1 -4.48957e-011 -2.96677e-027  
     length 4.76508   
     axis 180 30 90   XYZ
    dof rx ry rz
    limits (-90.0 60.0)
           (-90.0 90.0)
           (-90.0 90.0)
  end
  begin
     id 26 
     name rradius
     direction -1 -4.48974e-011 -1.44501e-026   
     length 2.78902   
     axis 180 30 90   XYZ
    dof rx
    limits (-10.0 170.0)
  end
  begin
     id 27 
     name rwrist
     direction -1 -4.48978e-011 -3.11579e-026   
     length 1.39451   
     axis 2.00652e-014 -90 -90   XYZ
    dof ry
    limits (-180.0 0.0)
  end
  begin
     id 28
     name rhand
     direction -1 -4.48956e-011 -6.23158e-026   
     length 0.721303   
     axis 3.97628e-014 -90 -90   XYZ
    dof rx rz
    limits (-90.0 90.0)
           (-45.0 45.0)
  end
  begin
     id 29
     name rfingers
     direction -1 -4.4899e-011 -1.24632e-025   
     length 0.581533   
     axis 7.95256e-014 -90 -90   XYZ
    dof rx
    limits (0.0 90.0)
  end
  begin
     id 30
     name rthumb
     direction -0.707107 -6.34911e-011 0.707107   
     length 0.834968   
     axis -90 -45 -2.85299e-015   XYZ
    dof rx rz
    limits (-45.0 45.0)
           (-45.0 45.0)
  end
:hierarchy
  begin
    root lhipjoint rhipjoint lowerback
    lhipjoint lfemur
    lfemur ltibia
    ltibia lfoot
    lfoot ltoes
    rhipjoint rfemur
    rfemur rtibia
    rtibia rfoot
    rfoot rtoes
    lowerback upperback
    upperback thorax
    thorax lowerneck lclavicle rclavicle
    lowerneck upperneck
    upperneck head
    lclavicle lhumerus
    lhumerus lradius
    lradius lwrist
    lwrist lhand lthumb
    lhand lfingers
    rclavicle rhumerus
    rhumerus rradius
    rradius rwrist
    rwrist rhand rthumb
    rhand rfingers
  end

#!OML:ASF I:\salsa\salsa 7_09\Patient 1\Session 1\dancerfemale.ASF
:FULLY-SPECIFIED
:DEGREES
370
root 5.00059 16.0881 2.35215 -356.795 158.05 351.876
lowerback 4.12272 8.93671 -3.94978
upperback -9.52577 12.2241 -3.9129
thorax -12.5579 6.32873 -3.99643
lowerneck -2.68253 -0.570225 -7.9213
upperneck 9.73089 -1.18967 6.94289
head 3.4075 -0.689225 3.36271
rclavicle -9.0447e-014 2.48481e-014
rhumerus 34.3711 47.8996 -90.8008
rradius 87.9695
rwrist 7.22818
rhand -1.91807 76.5763
rfingers 7.12502
rthumb 23.752 48.0242
lclavicle -9.0447e-014 2.48481e-014
lhumerus -60.7558 -3.32421 96.0491
lradius 74.0403
lwrist 6.69464
lhand 13.641 63.0815
lfingers 7.12502
lthumb 38.5709 88.7231
rfemur -37.9431 4.81902 -0.120683
rtibia 56.2897
rfoot -7.60412 3.7831
rtoes -31.3554
lfemur -22.3195 -13.1933 -27.3362
ltibia 46.091
lfoot -8.75073 -7.57534
ltoes 11.0165
371
root 5.43804 16.331 2.28299 -355.458 165.054 352.805
lowerback 3.63965 8.60869 -4.26013
upperback -9.72295 11.8904 -3.90435
thorax -12.5652 6.24829 -3.7257
lowerneck -1.93182 -2.17588 -8.78509
upperneck 9.49134 -3.42549 7.53381
head 3.40531 -1.81629 3.60217
rclavicle 6.15239e-014 7.03698e-014
rhumerus 34.4975 48.5488 -91.2219
rradius 88.6681
rwrist 7.11293
rhand -1.72682 75.2766
rfingers 7.12502
rthumb 23.9354 46.7484
lclavicle 6.15239e-014 7.03698e-014
lhumerus -61.2796 -3.30925 95.7162
lradius 74.3087
lwrist 5.7595
lhand 12.1829 63.4649
lfingers 7.12502
lthumb 37.1937 89.4791
rfemur -35.6782 10.8649 -3.34243
rtibia 50.3088
rfoot -6.19344 5.5285
rtoes -36.7725
lfemur -21.1323 -13.4006 -24.6839
ltibia 42.587
lfoot -6.49378 -11.2093
ltoes 12.1227
372
root 5.88313 16.5095 2.20811 -354.172 172.668 353.9
lowerback 2.97511 8.25259 -4.55488
upperback -9.82115 11.5491 -3.67699
thorax -12.3868 6.17974 -3.18195
lowerneck -1.05923 -3.97637 -9.62349
upperneck 9.04166 -5.91267 7.94363
head 3.3722 -3.0724 3.77015
rclavicle -1.9461e-013 -3.22031e-014
rhumerus 34.9024 48.8378 -90.891
rradius 89.1031
rwrist 6.63561
rhand 0.635752 73.1509
rfingers 7.12502
rthumb 26.1992 44.9391
lclavicle -1.9461e-013 -3.22031e-014
lhumerus -61.6157 -3.74288 95.7257
lradius 74.4803
lwrist 4.94317
lhand 15.7361 65.0655
lfingers 7.12502
lthumb 40.5441 -90.1251
rfemur -33.1074 17.959 -5.93676
rtibia 44.4292
rfoot -1.88967 7.21863
rtoes -36.1235
lfemur -20.3521 -13.7808 -21.6436
ltibia 38.8688
lfoot -4.00289 -14.7647
ltoes 12.7765
373
root 6.32236 16.6612 2.11258 -353.054 180.732 355.121
lowerback 2.52133 9.1072 -4.2802
upperback -9.99398 10.7527 -3.70729
thorax -12.2882 4.99297 -3.03283
lowerneck -0.110968 -5.7848 -10.3223
upperneck 8.62638 -8.46101 8.49842
head 3.37464 -4.35707 3.95383
rclavicle -4.68138e-014 -2.10712e-014
rhumerus 35.2998 48.6938 -90.8499
rradius 89.4012
rwrist 6.52988
rhand -0.132913 71.435
rfingers 7.12502
rthumb 25.4631 43.1161
lclavicle -4.68138e-014 -2.10712e-014
lhumerus -62.0896 -4.80948 95.7253
lradius 74.6116
lwrist 4.73576
lhand 17.2962 65.5923
lfingers 7.12502
lthumb 42.0084 -90.1795
rfemur -30.1148 23.0401 -6.76898
rtibia 38.8514
rfoot 5.69853 10.7419
rtoes -21.0764
lfemur -20.0485 -15.5205 -18.3132
ltibia 35.5274
lfoot -1.9511 -16.8678
ltoes 14.5034
374
root 6.75612 16.8012 1.99075 -352.386 188.992 356.422
lowerback 2.09856 8.63141 -3.82705
upperback -10.0768 10.2484 -3.51764
thorax -12.0655 4.75891 -2.93397
lowerneck 0.725921 -7.56277 -11.1851
upperneck 8.25859 -10.9929 9.28084
head 3.46226 -5.63221 4.21825
rclavicle -1.76024e-013 -3.4191e-014
rhumerus 36.3809 48.2717 -90.2803
rradius 88.9177
rwrist 5.76542
rhand -0.909628 70.5346
rfingers 7.12502
rthumb 24.7188 42.1115
lclavicle -1.76024e-013 -3.4191e-014
lhumerus -62.4812 -5.99944 95.7329
lradius 74.7784
lwrist 4.80327
lhand 17.5859 66.0622
lfingers 7.12502
lthumb 42.2799 -90.5577
rfemur -26.2427 23.738 -5.11331
rtibia 33.9247
rfoot 14.4707 17.6001
rtoes -26.8738
lfemur -20.1535 -18.0461 -15.1571
ltibia 33.2442
lfoot -1.35419 -15.6733
ltoes 15.6056
375
root 7.16254 16.8828 1.87147 -351.745 198.244 357.6
lowerback 1.63367 7.90231 -3.20625
upperback -10.1635 9.41391 -3.26231
thorax -11.8075 4.35157 -2.81416
lowerneck 1.91068 -9.39774 -12.2918
upperneck 7.49633 -13.598 9.93876
head 3.43476 -6.95779 4.48244
rclavicle 2.40529e-014 2.62396e-014
rhumerus 37.3864 47.0635 -89.8037
rradius 88.4452
rwrist 6.28922
rhand -2.82562 72.8613
rfingers 7.12502
rthumb 22.8813 44.1988
lclavicle 2.40529e-014 2.62396e-014
lhumerus -62.9843 -7.0657 96.0514
lradius 75.2709
lwrist 4.96727
lhand 17.5216 66.8724
lfingers 7.12502
lthumb 42.2196 -91.3884
rfemur -21.7424 21.8911 -2.31017
rtibia 29.8163
rfoot 19.0113 22.9479
rtoes -32.053
lfemur -21.541 -18.7309 -12.5878
ltibia 32.1052
lfoot -2.11531 -12.4652
ltoes 17.8313
